Results
version=1
nRows=15
nColumns=35
inDegrees=yes
endheader
time	/jointset/boatJoint/bJoint_3/value	/jointset/boatJoint/bJoint_3/speed	/jointset/seatJoint/seatpos/value	/jointset/seatJoint/seatpos/speed	/jointset/starboardlockJoint/slocangle/value	/jointset/starboardlockJoint/slocangle/speed	/jointset/starboardoarJoint/soarinout/value	/jointset/starboardoarJoint/soarinout/speed	/jointset/starboardbladeJoint/sblpos/value	/jointset/starboardbladeJoint/sblpos/speed	/jointset/hipJoint/hipangle/value	/jointset/hipJoint/hipangle/speed	/jointset/knee_Joint/kneeangle/value	/jointset/knee_Joint/kneeangle/speed	/jointset/foot_Joint/footangle/value	/jointset/foot_Joint/footangle/speed	/jointset/lbackJoint/lbackangle/value	/jointset/lbackJoint/lbackangle/speed	/jointset/upper_arm_left_Joint/uarmleft_out/value	/jointset/upper_arm_left_Joint/uarmleft_out/speed	/jointset/upper_arm_left_Joint/uarmleft_trn/value	/jointset/upper_arm_left_Joint/uarmleft_trn/speed	/jointset/upper_arm_left_Joint/uarmleft_up/value	/jointset/upper_arm_left_Joint/uarmleft_up/speed	/jointset/lower_arm_left_Joint/se_inout/value	/jointset/lower_arm_left_Joint/se_inout/speed	/jointset/lower_arm_left_Joint/se_updown/value	/jointset/lower_arm_left_Joint/se_updown/speed	/jointset/handle_left_Joint/handleleft_out/value	/jointset/handle_left_Joint/handleleft_out/speed	/jointset/handle_left_Joint/handleleft_trn/value	/jointset/handle_left_Joint/handleleft_trn/speed	/jointset/handle_left_Joint/handleleft_up/value	/jointset/handle_left_Joint/handleleft_up/speed
      0.92814671	     -0.56700619	     -1.84933869	     -0.00288780	      0.01592952	    -28.16191574	    713.49646903	     18.33007859	    155.13652035	    -18.33007859	   -155.13652035	     94.34300766	     35.71558709	      3.39337813	    -66.33128139	      7.73638579	    -30.61569430	    -35.07898198	   -626.51766252	     60.74246899	  -4724.04765043	    -12.17572498	   -245.18434969	   -122.07536887	  -3044.09732036	    -31.36094859	 120346.93187353	     85.95563434	    118.99961046	   -267.50549879	  12407.23589305	     83.43838568	  98045.81275105	    297.31868867	  60632.67833814
      0.92815669	     -0.56702487	     -1.89207512	     -0.00288764	      0.01663918	    -28.15459908	    752.74568730	     18.33160522	    150.70923088	    -18.33160522	   -150.70923088	     94.34337211	     37.31416563	      3.39270128	    -69.30013543	      7.73607339	    -31.98596980	    -35.08530356	   -640.21805594	     60.69476189	  -4835.90814205	    -12.17786682	   -183.84106967	   -122.10540360	  -2976.41244574	    -30.15191836	 121912.43609244	     85.95506567	   -233.36378417	   -257.85076310	  12462.28766613	     83.91895047	  99302.55415097	    287.73012876	  61473.82964390
      0.92816667	     -0.56704397	     -1.93569513	     -0.00288747	      0.01736073	    -28.14688539	    793.04608078	     18.33308616	    145.98281843	    -18.33308616	   -145.98281843	     94.34375265	     38.94041530	      3.39199454	    -72.32037530	      7.73574719	    -33.37996000	    -35.09176360	   -654.25819046	     60.64591669	  -4952.10644876	    -12.17939234	   -121.71176022	   -122.13483375	  -2923.03299230	    -28.92721025	 123488.37173734	     85.95096642	   -588.53589988	   -246.76672167	  12514.35953945	     84.20574411	 100564.14793000	    276.71202663	  62322.74240193
      0.92817665	     -0.56706351	     -1.98014530	     -0.00288729	      0.01809268	    -28.13876431	    834.37071412	     18.33451846	    140.96247085	    -18.33451846	   -140.96247085	     94.34414954	     40.59103162	      3.39125742	    -75.38586357	      7.73540696	    -34.79483194	    -35.09836543	   -668.62708566	     60.59588965	  -5072.73130880	    -12.18029433	    -58.92382500	   -122.16380447	  -2884.43784642	    -27.68671957	 125074.87846557	     85.94330547	   -947.14377182	   -234.86447157	  12563.33386788	     84.26031323	 101830.56056437	    264.87545313	  63179.52107243
      0.92818825	     -0.56708678	     -2.03277260	     -0.00288708	      0.01895430	    -28.12880114	    883.64613200	     18.33611805	    134.76615581	    -18.33611805	   -134.76615581	     94.34463165	     42.53534179	      3.39036205	    -78.99678693	      7.73499370	    -36.46144515	    -35.10622022	   -685.72377794	     60.53620619	  -5218.60014236	    -12.18055142	     14.69856187	   -122.19709495	  -2858.84599358	    -26.22510014	 126932.13155786	     85.92987715	  -1369.11293022	   -221.26092137	  12616.18944558	     84.01295333	 103308.34956871	    251.34786240	  64185.26844093
      0.92819985	     -0.56711067	     -2.08635253	     -0.00288685	      0.01982521	    -28.11825881	    934.21909112	     18.33764355	    128.19042894	    -18.33764355	   -128.19042894	     94.34513645	     44.50209661	      3.38942454	    -82.64938627	      7.73456099	    -38.14728966	    -35.11427572	   -703.22959805	     60.47479456	  -5370.71853336	    -12.17995142	     88.81511366	   -122.23021266	  -2854.80184410	    -24.74185219	 128803.99542912	     85.91151638	  -1797.76650151	   -209.16815255	  12664.55260882	     83.45656179	 104792.45862662	    239.33061530	  65201.92712159
      0.92821145	     -0.56713519	     -2.14078649	     -0.00288662	      0.02070264	    -28.10712255	    986.03893703	     18.33909063	    121.24628805	    -18.33909063	   -121.24628805	     94.34566416	     46.48516593	      3.38844448	    -86.33227610	      7.73410864	    -39.84711018	    -35.12253657	   -721.12412589	     60.41158137	  -5529.23947774	    -12.17848989	    163.19854160	   -122.26341306	  -2873.27224785	    -23.23680517	 130690.60198300	     85.88813860	  -2234.33381201	   -199.18641429	  12708.27436399	     82.64893508	 106282.73473991	    229.42391329	  66229.63407189
      0.92822305	     -0.56716034	     -2.19597032	     -0.00288637	      0.02158367	    -28.09537820	   1039.05236777	     18.34045507	    113.94564754	    -18.34045507	   -113.94564754	     94.34621493	     48.47806571	      3.38742157	    -90.03341384	      7.73363651	    -41.55534813	    -35.13100714	   -739.38554646	     60.34649143	  -5694.32408490	    -12.17616512	    237.61075703	   -122.29696341	  -2915.32464950	    -21.70978702	 132592.14633042	     85.85964435	  -2680.14916416	   -191.24930782	  12747.15059583	     81.65183208	 107779.07403899	    221.56130647	  67268.57071275
      0.92824267	     -0.56720434	     -2.29066124	     -0.00288593	      0.02307256	    -28.07410096	   1131.23509930	     18.34256274	    100.82905086	    -18.34256274	   -100.82905086	     94.34719879	     51.85022941	      3.38559436	    -96.29604593	      7.73279315	    -44.44581653	    -35.14581708	   -771.02878332	     60.23195604	  -5988.83462664	    -12.17027549	    362.77585089	   -122.35527532	  -3043.41693257	    -19.07754055	 135841.57137930	     85.79949819	  -3459.05201534	   -181.46936933	  12801.32111043	     79.66733477	 110322.36179253	    211.90595602	  69051.17227775
      0.92826228	     -0.56725020	     -2.38658825	     -0.00288547	      0.02454637	    -28.05098642	   1226.35911599	     18.34440411	     86.80324777	    -18.34440411	    -86.80324777	     94.34824857	     55.19413829	      3.38364471	   -102.50617382	      7.73189328	    -47.31203552	    -35.16125622	   -803.52825123	     60.11144901	  -6303.43675916	    -12.16194792	    485.99266931	   -122.41684646	  -3248.87652254	    -16.38113364	 139135.17243421	     85.72371210	  -4276.45938021	   -174.79577353	  12839.93295017	     77.43139893	 112882.04136906	    205.35496854	  70867.42234289
      0.92828189	     -0.56729795	     -2.48308947	     -0.00288497	      0.02598681	    -28.02598025	   1324.07375985	     18.34596217	     71.95207406	    -18.34596217	    -71.95207406	     94.34936332	     58.46893541	      3.38157440	   -108.58791684	      7.73093773	    -50.11898144	    -35.17734001	   -836.74145354	     59.98456760	  -6639.02397598	    -12.15123459	    605.81424507	   -122.48326821	  -3539.47876245	    -13.61969187	 142473.74667908	     85.63144371	  -5141.49687254	   -170.05209809	  12861.87574886	     75.02425902	 115457.33114101	    200.73159786	  72718.35475865
      0.92830150	     -0.56734760	     -2.57941113	     -0.00288445	      0.02737332	    -27.99903553	   1423.97326910	     18.34722165	     56.37335541	    -18.34722165	    -56.37335541	     94.35054125	     61.62846935	      3.37938676	   -114.45556241	      7.72992802	    -52.82709306	    -35.19408087	   -870.50398736	     59.85089108	  -6996.53782910	    -12.13821762	    720.62377906	   -122.55629882	  -3924.51695421	    -10.79232573	 145858.02547675	     85.52165719	  -6064.81330965	   -166.53800171	  12865.97110646	     72.48793271	 118047.33247417	    197.33514234	  74605.09740147
      0.92832698	     -0.56741490	     -2.70283195	     -0.00288373	      0.02905530	    -27.96107618	   1556.22145278	     18.34839056	     35.23791457	    -18.34839056	    -35.23791457	     94.35216113	     65.47372756	      3.37637836	   -121.59661878	      7.72853949	    -56.12289122	    -35.21682362	   -914.86518587	     59.66636602	  -7495.33160987	    -12.11806251	    859.25998083	   -122.66428302	  -4584.31795334	     -7.01948344	 150323.68320834	     85.35077339	  -7372.10430434	   -163.14949465	  12842.60216031	     69.03678009	 121432.14961893	    194.09481301	  77111.60084593
      0.92835246	     -0.56748529	     -2.82222415	     -0.00288297	      0.03054742	    -27.91972389	   1690.08416880	     18.34901085	     13.35859791	    -18.34901085	    -13.35859791	     94.35387396	     68.90118790	      3.37319733	   -127.96169616	      7.72707129	    -59.06050826	    -35.24069898	   -959.31968137	     59.46861668	  -8035.02223049	    -12.09457089	    981.69744024	   -122.79166509	  -5452.98549050	     -3.13185822	 154868.65815290	     85.14471151	  -8832.53482318	   -160.62285187	  12784.16847387	     65.43339440	 124837.47324468	    191.71014369	  79683.64301045
      0.92838816	     -0.56758887	     -2.97730326	     -0.00288185	      0.03217997	    -27.85603836	   1877.23366321	     18.34893085	    -17.87525150	    -18.34893085	     17.87525150	     94.35640548	     72.68504455	      3.36849585	   -134.98845764	      7.72490133	    -62.30341309	    -35.27604591	  -1020.51461733	     59.16721981	  -8864.36223144	    -12.05698801	   1115.09587822	   -123.01406296	  -7098.45445070	      2.51263787	 161371.49674882	     84.78813542	 -11219.24790065	   -157.99255929	  12637.87393271	     60.15439368	 129637.53030913	    189.26604874	  83404.41953673
